<?xml version="1.0" encoding="UTF-8" standalone="no"?>
<!-- Generator: Adobe Illustrator 19.0.0, SVG Export Plug-In . SVG Version: 6.00 Build 0)  -->

<svg
   xmlns:dc="http://purl.org/dc/elements/1.1/"
   xmlns:cc="http://creativecommons.org/ns#"
   xmlns:rdf="http://www.w3.org/1999/02/22-rdf-syntax-ns#"
   xmlns:svg="http://www.w3.org/2000/svg"
   xmlns="http://www.w3.org/2000/svg"
   xmlns:sodipodi="http://sodipodi.sourceforge.net/DTD/sodipodi-0.dtd"
   xmlns:inkscape="http://www.inkscape.org/namespaces/inkscape"
   version="1.1"
   id="Capa_1"
   x="0px"
   y="0px"
   viewBox="0 0 480 480"
   style="enable-background:new 0 0 480 480;"
   xml:space="preserve"
   sodipodi:docname="web.svg"
   inkscape:version="0.92.3 (2405546, 2018-03-11)"><metadata
   id="metadata133"><rdf:RDF><cc:Work
       rdf:about=""><dc:format>image/svg+xml</dc:format><dc:type
         rdf:resource="http://purl.org/dc/dcmitype/StillImage" /></cc:Work></rdf:RDF></metadata><defs
   id="defs131" /><sodipodi:namedview
   pagecolor="#ffffff"
   bordercolor="#666666"
   borderopacity="1"
   objecttolerance="10"
   gridtolerance="10"
   guidetolerance="10"
   inkscape:pageopacity="0"
   inkscape:pageshadow="2"
   inkscape:window-width="1366"
   inkscape:window-height="709"
   id="namedview129"
   showgrid="false"
   inkscape:zoom="0.49166667"
   inkscape:cx="-348.81356"
   inkscape:cy="240"
   inkscape:window-x="0"
   inkscape:window-y="0"
   inkscape:window-maximized="1"
   inkscape:current-layer="Capa_1" />
<g
   id="g6"
   style="fill:#6843ff;fill-opacity:1">
	<g
   id="g4"
   style="fill:#6843ff;fill-opacity:1">
		<path
   d="M392,0H88C65.92,0.026,48.026,17.92,48,40v216c0.026,22.08,17.92,39.974,40,40h109.392l-11.424,40H160v16h160v-16h-25.968    l-11.424-40H392c22.08-0.026,39.974-17.92,40-40V40C431.974,17.92,414.08,0.026,392,0z M202.608,336l11.424-40h51.936l11.424,40    H202.608z M416,256c0,13.255-10.745,24-24,24H88c-13.255,0-24-10.745-24-24v-16h352V256z M416,224H64V40c0-13.255,10.745-24,24-24    h304c13.255,0,24,10.745,24,24V224z"
   id="path2"
   style="fill:#6843ff;fill-opacity:1" />
	</g>
</g>
<g
   id="g12"
   style="fill:#6843ff;fill-opacity:1">
	<g
   id="g10"
   style="fill:#6843ff;fill-opacity:1">
		<path
   d="M304,368H80c-4.418,0-8,3.582-8,8v96c0,4.418,3.582,8,8,8h224c4.418,0,8-3.582,8-8v-96C312,371.582,308.418,368,304,368z     M296,464H88v-80h208V464z"
   id="path8"
   style="fill:#6843ff;fill-opacity:1" />
	</g>
</g>
<g
   id="g18"
   style="fill:#6843ff;fill-opacity:1">
	<g
   id="g16"
   style="fill:#6843ff;fill-opacity:1">
		<rect
   x="104"
   y="432"
   width="16"
   height="16"
   id="rect14"
   style="fill:#6843ff;fill-opacity:1" />
	</g>
</g>
<g
   id="g24"
   style="fill:#6843ff;fill-opacity:1">
	<g
   id="g22"
   style="fill:#6843ff;fill-opacity:1">
		<rect
   x="104"
   y="400"
   width="16"
   height="16"
   id="rect20"
   style="fill:#6843ff;fill-opacity:1" />
	</g>
</g>
<g
   id="g30"
   style="fill:#6843ff;fill-opacity:1">
	<g
   id="g28"
   style="fill:#6843ff;fill-opacity:1">
		<rect
   x="136"
   y="400"
   width="16"
   height="16"
   id="rect26"
   style="fill:#6843ff;fill-opacity:1" />
	</g>
</g>
<g
   id="g36"
   style="fill:#6843ff;fill-opacity:1">
	<g
   id="g34"
   style="fill:#6843ff;fill-opacity:1">
		<rect
   x="168"
   y="400"
   width="16"
   height="16"
   id="rect32"
   style="fill:#6843ff;fill-opacity:1" />
	</g>
</g>
<g
   id="g42"
   style="fill:#6843ff;fill-opacity:1">
	<g
   id="g40"
   style="fill:#6843ff;fill-opacity:1">
		<rect
   x="232"
   y="400"
   width="16"
   height="16"
   id="rect38"
   style="fill:#6843ff;fill-opacity:1" />
	</g>
</g>
<g
   id="g48"
   style="fill:#6843ff;fill-opacity:1">
	<g
   id="g46"
   style="fill:#6843ff;fill-opacity:1">
		<rect
   x="200"
   y="400"
   width="16"
   height="16"
   id="rect44"
   style="fill:#6843ff;fill-opacity:1" />
	</g>
</g>
<g
   id="g54"
   style="fill:#6843ff;fill-opacity:1">
	<g
   id="g52"
   style="fill:#6843ff;fill-opacity:1">
		<rect
   x="264"
   y="432"
   width="16"
   height="16"
   id="rect50"
   style="fill:#6843ff;fill-opacity:1" />
	</g>
</g>
<g
   id="g60"
   style="fill:#6843ff;fill-opacity:1">
	<g
   id="g58"
   style="fill:#6843ff;fill-opacity:1">
		<rect
   x="264"
   y="400"
   width="16"
   height="16"
   id="rect56"
   style="fill:#6843ff;fill-opacity:1" />
	</g>
</g>
<g
   id="g66"
   style="fill:#6843ff;fill-opacity:1">
	<g
   id="g64"
   style="fill:#6843ff;fill-opacity:1">
		<rect
   x="136"
   y="432"
   width="112"
   height="16"
   id="rect62"
   style="fill:#6843ff;fill-opacity:1" />
	</g>
</g>
<g
   id="g72"
   style="fill:#6843ff;fill-opacity:1">
	<g
   id="g70"
   style="fill:#6843ff;fill-opacity:1">
		<path
   d="M368,368c-22.091,0-40,17.909-40,40v32c0,22.091,17.909,40,40,40c22.091,0,40-17.909,40-40v-32    C408,385.909,390.091,368,368,368z M392,440c0,13.255-10.745,24-24,24s-24-10.745-24-24v-32c0-13.255,10.745-24,24-24    s24,10.745,24,24V440z"
   id="path68"
   style="fill:#6843ff;fill-opacity:1" />
	</g>
</g>
<g
   id="g78"
   style="fill:#6843ff;fill-opacity:1">
	<g
   id="g76"
   style="fill:#6843ff;fill-opacity:1">
		<rect
   x="360"
   y="400"
   width="16"
   height="16"
   id="rect74"
   style="fill:#6843ff;fill-opacity:1" />
	</g>
</g>
<g
   id="g84"
   style="fill:#6843ff;fill-opacity:1">
	<g
   id="g82"
   style="fill:#6843ff;fill-opacity:1">

			<rect
   x="181.737"
   y="120.139"
   transform="matrix(0.2751 -0.9614 0.9614 0.2751 50.7457 323.5759)"
   width="116.43"
   height="15.993"
   id="rect80"
   style="fill:#6843ff;fill-opacity:1" />
	</g>
</g>
<g
   id="g90"
   style="fill:#6843ff;fill-opacity:1">
	<g
   id="g88"
   style="fill:#6843ff;fill-opacity:1">
		<path
   d="M197.12,94.144l-10.24-12.288l-48,40c-3.393,2.83-3.85,7.874-1.02,11.268c0.309,0.37,0.65,0.712,1.02,1.02l48,40    l10.24-12.288L156.496,128L197.12,94.144z"
   id="path86"
   style="fill:#6843ff;fill-opacity:1" />
	</g>
</g>
<g
   id="g96"
   style="fill:#6843ff;fill-opacity:1">
	<g
   id="g94"
   style="fill:#6843ff;fill-opacity:1">
		<path
   d="M342.14,122.876c-0.309-0.37-0.65-0.712-1.02-1.02l-48-40l-10.24,12.288L323.504,128l-40.624,33.856l10.24,12.288l48-40    C344.513,131.314,344.97,126.27,342.14,122.876z"
   id="path92"
   style="fill:#6843ff;fill-opacity:1" />
	</g>
</g>
<g
   id="g98"
   style="fill:#6843ff;fill-opacity:1">
</g>
<g
   id="g100"
   style="fill:#6843ff;fill-opacity:1">
</g>
<g
   id="g102"
   style="fill:#6843ff;fill-opacity:1">
</g>
<g
   id="g104"
   style="fill:#6843ff;fill-opacity:1">
</g>
<g
   id="g106"
   style="fill:#6843ff;fill-opacity:1">
</g>
<g
   id="g108"
   style="fill:#6843ff;fill-opacity:1">
</g>
<g
   id="g110"
   style="fill:#6843ff;fill-opacity:1">
</g>
<g
   id="g112"
   style="fill:#6843ff;fill-opacity:1">
</g>
<g
   id="g114"
   style="fill:#6843ff;fill-opacity:1">
</g>
<g
   id="g116"
   style="fill:#6843ff;fill-opacity:1">
</g>
<g
   id="g118"
   style="fill:#6843ff;fill-opacity:1">
</g>
<g
   id="g120"
   style="fill:#6843ff;fill-opacity:1">
</g>
<g
   id="g122"
   style="fill:#6843ff;fill-opacity:1">
</g>
<g
   id="g124"
   style="fill:#6843ff;fill-opacity:1">
</g>
<g
   id="g126"
   style="fill:#6843ff;fill-opacity:1">
</g>
</svg>